<?xml version="1.0" encoding="UTF-8" standalone="no"?>
<!-- Created with Inkscape (http://www.inkscape.org/) -->

<svg
   width="60"
   height="60"
   viewBox="0 0 15.875 15.875"
   version="1.1"
   id="svg3045"
   xmlns="http://www.w3.org/2000/svg"
   xmlns:svg="http://www.w3.org/2000/svg">
  <defs
     id="defs3042" />
  <g
     id="layer1"
     transform="translate(-239.19467,-7.6826104)">
    <g
       id="g2940"
       transform="translate(-126.93125,-71.668975)">
      <rect
         style="fill:none;fill-opacity:0;stroke-width:0.881856;stroke-linecap:round;stroke-linejoin:round;paint-order:stroke fill markers"
         id="rect2910"
         width="15.875"
         height="15.875"
         x="366.12592"
         y="79.351585" />
      <g
         id="g2938"
         transform="translate(-1.6137391e-6,16.482672)">
        <g
           id="g2916"
           transform="matrix(0.20518375,0,0,0.20518375,272.23363,53.28894)"
           style="stroke:#ffffff;stroke-width:1.93424">
          <path
             style="color:#000000;fill:#ffffff;stroke:none;stroke-linecap:round;stroke-linejoin:round;-inkscape-stroke:none;paint-order:stroke fill markers"
             d="m 479.7793,66.257812 c -0.53265,0.01764 -1.01649,0.195657 -1.47852,0.53711 -0.46202,0.341453 -0.91211,0.939581 -0.91211,1.703125 l 0.004,-0.08398 c -0.50401,5.839176 -2.19955,10.2507 -4.36524,13.15625 -2.16569,2.905551 -4.75983,4.28711 -7.16015,4.28711 a 0.96711999,0.96711999 0 0 0 -0.9668,0.966797 0.96711999,0.96711999 0 0 0 0.9668,0.966797 c 3.14069,0 6.27586,-1.799437 8.71093,-5.066407 2.43508,-3.26697 4.21155,-8.019416 4.74024,-14.144531 a 0.9672167,0.9672167 0 0 0 0.004,-0.08203 c 0,-0.02188 0.001,-0.05393 0.1289,-0.148438 0.11837,-0.08748 0.31556,-0.139109 0.36328,-0.148437 1.64445,0.10875 2.48284,0.57402 3.00196,1.265625 0.52694,0.702032 0.77434,1.797302 0.77734,3.242187 0.004,2.069733 -1.16493,4.908627 -1.30273,7.503907 -0.0689,1.29764 0.17905,2.660274 1.17968,3.65625 1.00064,0.995975 2.56842,1.508718 4.83008,1.605468 a 0.96711999,0.96711999 0 0 0 1.00781,-0.923828 0.96711999,0.96711999 0 0 0 -0.92578,-1.007812 c -2.00317,-0.08569 -3.0407,-0.54111 -3.54687,-1.044922 -0.50617,-0.503812 -0.66688,-1.172204 -0.61328,-2.181641 0.1072,-2.018874 1.31231,-4.898095 1.30664,-7.611328 -0.003,-1.65086 -0.25713,-3.187561 -1.16602,-4.398437 -0.90889,-1.210877 -2.43872,-1.928499 -4.49414,-2.048829 a 0.9672167,0.9672167 0 0 0 -0.0898,0 z"
             id="path2912" />
          <path
             style="color:#000000;fill:#ffffff;stroke:none;stroke-linecap:round;stroke-linejoin:round;-inkscape-stroke:none;paint-order:stroke fill markers"
             d="m 488.39844,78.78125 c -1.43082,-0.171059 -3.08119,-0.152193 -4.97071,0.0957 a 0.96711999,0.96711999 0 0 0 -0.83398,1.085938 0.96711999,0.96711999 0 0 0 1.08594,0.832031 c 3.51484,-0.461131 5.94169,-0.03483 7.49218,0.755859 1.5505,0.790686 2.27201,1.90957 2.50196,3.103516 0.26636,1.383043 0.16823,1.795051 0.0547,2.076172 -0.11354,0.28112 -0.50306,0.732509 -0.67383,1.644531 -0.17113,0.913898 0.17535,1.698408 0.39258,2.017578 0.10861,0.159585 0.13731,0.213864 0.13281,0.201172 -0.005,-0.01269 0.0105,-0.05947 -0.0176,0.06055 -0.0635,0.271313 -0.15678,0.355742 -0.42969,0.632812 -0.2729,0.277071 -0.7535,0.769938 -0.88672,1.525391 -0.14593,0.827589 0.31789,1.494229 0.48438,1.748047 0.16648,0.253818 0.1745,0.08566 0.082,0.375 -0.1728,0.540677 -0.39313,0.535813 -0.87891,1.160156 -0.24288,0.312172 -0.46812,0.76321 -0.5625,1.308594 -0.0944,0.545384 -0.0866,1.185859 0.0234,2.033203 -0.002,-0.01399 -0.024,0.253535 -0.25391,0.61719 -0.22993,0.36365 -0.62676,0.81504 -1.16015,1.25586 -1.06677,0.88163 -2.67436,1.72925 -4.59961,2.08789 -5.07092,0.94462 -12.57602,-0.34999 -17.32813,-1.11524 a 0.96711999,0.96711999 0 0 0 -1.10742,0.80078 0.96711999,0.96711999 0 0 0 0.80078,1.10938 c 4.71605,0.75943 12.29213,2.16888 17.99024,1.10742 2.26954,-0.42278 4.14986,-1.40354 5.47656,-2.5 0.66335,-0.54823 1.19066,-1.1248 1.5625,-1.71289 0.37184,-0.58808 0.62854,-1.196292 0.53711,-1.90039 -0.0946,-0.728616 -0.0811,-1.187454 -0.0352,-1.453125 0.046,-0.265671 0.0944,-0.336544 0.1836,-0.451172 0.17837,-0.229255 0.85465,-0.699974 1.19336,-1.759766 0.26887,-0.841309 -0.0741,-1.668897 -0.30664,-2.023437 -0.23255,-0.35454 -0.21614,-0.24452 -0.19727,-0.351563 0.0316,-0.179178 0.0814,-0.22167 0.35938,-0.503906 0.27799,-0.282236 0.75593,-0.782848 0.93554,-1.550781 0.0935,-0.399602 0.0731,-0.821405 -0.043,-1.148438 -0.11607,-0.327032 -0.27637,-0.526368 -0.35547,-0.642578 -0.15818,-0.232419 -0.18241,-0.08834 -0.0918,-0.572265 0.091,-0.485804 0.29459,-0.602387 0.5664,-1.275391 0.27182,-0.673004 0.35197,-1.602175 0.0508,-3.166016 -0.33761,-1.752936 -1.50269,-3.431437 -3.52149,-4.460937 -1.0094,-0.51475 -2.22153,-0.875816 -3.65234,-1.046875 z"
             id="path2914" />
        </g>
        <g
           id="g2930"
           transform="matrix(0.20518375,0,0,0.20518375,272.23363,53.28894)"
           style="stroke:#ffffff;stroke-width:1.93424">
          <path
             style="color:#000000;fill:#ffffff;stroke:none;stroke-linecap:round;stroke-linejoin:round;-inkscape-stroke:none;paint-order:stroke fill markers"
             d="m 471.92383,73.976562 a 0.96711999,0.96711999 0 0 0 -0.74024,0.01953 l -2.9082,1.292968 a 0.96711999,0.96711999 0 0 0 -0.49219,1.275391 0.96711999,0.96711999 0 0 0 1.27735,0.492188 l 2.9082,-1.292969 a 0.96711999,0.96711999 0 0 0 0.49219,-1.275391 0.96711999,0.96711999 0 0 0 -0.53711,-0.511719 z"
             id="path2918" />
          <path
             style="color:#000000;fill:#ffffff;stroke:none;stroke-linecap:round;stroke-linejoin:round;-inkscape-stroke:none;paint-order:stroke fill markers"
             d="m 468.00586,65.351562 a 0.96711999,0.96711999 0 0 0 -1.20508,0.644532 0.96711999,0.96711999 0 0 0 0.64453,1.205078 l 4.18164,1.267578 a 0.96711999,0.96711999 0 0 0 1.20508,-0.644531 0.96711999,0.96711999 0 0 0 -0.64453,-1.207032 z"
             id="path2920" />
          <path
             style="color:#000000;fill:#ffffff;stroke:none;stroke-linecap:round;stroke-linejoin:round;-inkscape-stroke:none;paint-order:stroke fill markers"
             d="m 475.93359,58.28125 a 0.96711999,0.96711999 0 0 0 -0.74023,0.0293 0.96711999,0.96711999 0 0 0 -0.4707,1.283203 l 1.42968,3.09375 a 0.96711999,0.96711999 0 0 0 1.28516,0.470703 0.96711999,0.96711999 0 0 0 0.4707,-1.283203 l -1.43164,-3.091797 a 0.96711999,0.96711999 0 0 0 -0.54297,-0.501953 z"
             id="path2922" />
          <path
             style="color:#000000;fill:#ffffff;stroke:none;stroke-linecap:round;stroke-linejoin:round;-inkscape-stroke:none;paint-order:stroke fill markers"
             d="m 485.94531,57.845703 a 0.96711999,0.96711999 0 0 0 -1.25781,0.535156 l -1.42383,3.535157 a 0.96711999,0.96711999 0 0 0 0.53516,1.259765 0.96711999,0.96711999 0 0 0 1.25781,-0.537109 l 1.42578,-3.535156 a 0.96711999,0.96711999 0 0 0 -0.53711,-1.257813 z"
             id="path2924" />
          <path
             style="color:#000000;fill:#ffffff;stroke:none;stroke-linecap:round;stroke-linejoin:round;-inkscape-stroke:none;paint-order:stroke fill markers"
             d="M 492.34961,65.232422 489.30078,66.5 a 0.96711999,0.96711999 0 0 0 -0.52148,1.263672 0.96711999,0.96711999 0 0 0 1.26367,0.521484 l 3.04883,-1.267578 a 0.96711999,0.96711999 0 0 0 0.52148,-1.263672 0.96711999,0.96711999 0 0 0 -1.26367,-0.521484 z"
             id="path2926" />
          <path
             style="color:#000000;fill:#ffffff;stroke:none;stroke-linecap:round;stroke-linejoin:round;-inkscape-stroke:none;paint-order:stroke fill markers"
             d="m 489.96484,74.197266 a 0.96711999,0.96711999 0 0 0 -1.25,0.550781 A 0.96711999,0.96711999 0 0 0 489.26562,76 l 3.00391,1.164062 a 0.96711999,0.96711999 0 0 0 1.25195,-0.550781 0.96711999,0.96711999 0 0 0 -0.55273,-1.251953 z"
             id="path2928" />
        </g>
        <g
           id="g2936"
           transform="matrix(-0.20518375,0,0,-0.20518375,475.89322,90.064043)"
           style="stroke:#ffffff;stroke-width:1.93424187">
          <path
             style="color:#000000;fill:#ffffff;stroke:none;stroke-linecap:round;stroke-linejoin:round;-inkscape-stroke:none;paint-order:stroke fill markers"
             d="m 479.7793,66.257812 c -0.53265,0.01764 -1.01649,0.195657 -1.47852,0.53711 -0.46203,0.341453 -0.91211,0.93958 -0.91211,1.703125 l 0.004,-0.08398 c -0.50401,5.839176 -2.19955,10.2507 -4.36524,13.15625 -2.16569,2.905551 -4.75984,4.28711 -7.16015,4.28711 a 0.96712095,0.96712095 0 0 0 -0.9668,0.966797 0.96712095,0.96712095 0 0 0 0.9668,0.966797 c 3.14069,0 6.27586,-1.799436 8.71093,-5.066407 2.43508,-3.26697 4.21155,-8.019416 4.74024,-14.144531 a 0.96721766,0.96721766 0 0 0 0.004,-0.08203 c 0,-0.02188 0.001,-0.05393 0.1289,-0.148438 0.11837,-0.08748 0.31556,-0.139109 0.36328,-0.148437 1.64445,0.10875 2.48284,0.57402 3.00196,1.265625 0.52694,0.702032 0.77434,1.797302 0.77734,3.242187 0.004,2.069733 -1.16493,4.908626 -1.30273,7.503907 -0.0689,1.29764 0.17904,2.660274 1.17968,3.65625 1.00064,0.995976 2.56842,1.508718 4.83008,1.605468 a 0.96712095,0.96712095 0 0 0 1.00781,-0.923828 0.96712095,0.96712095 0 0 0 -0.92578,-1.007812 c -2.00317,-0.08569 -3.0407,-0.54111 -3.54687,-1.044922 -0.50617,-0.503812 -0.66688,-1.172204 -0.61328,-2.181641 0.1072,-2.018873 1.31231,-4.898094 1.30664,-7.611328 -0.003,-1.650861 -0.25713,-3.187561 -1.16602,-4.398437 -0.90889,-1.210877 -2.43872,-1.928499 -4.49414,-2.048829 a 0.96721766,0.96721766 0 0 0 -0.0898,0 z"
             id="path2932" />
          <path
             style="color:#000000;fill:#ffffff;stroke:none;stroke-linecap:round;stroke-linejoin:round;-inkscape-stroke:none;paint-order:stroke fill markers"
             d="m 488.39844,78.78125 c -1.43082,-0.171059 -3.08119,-0.152193 -4.97071,0.0957 a 0.96712095,0.96712095 0 0 0 -0.83398,1.085938 0.96712095,0.96712095 0 0 0 1.08594,0.832031 c 3.51484,-0.461131 5.94169,-0.03483 7.49218,0.755859 1.5505,0.790686 2.27201,1.90957 2.50196,3.103516 0.26636,1.383043 0.16823,1.795052 0.0547,2.076172 -0.11354,0.28112 -0.50306,0.732509 -0.67383,1.644531 -0.17113,0.913898 0.17535,1.698408 0.39258,2.017578 0.10861,0.159585 0.13731,0.213864 0.13281,0.201172 -0.005,-0.01269 0.0105,-0.05947 -0.0176,0.06055 -0.0635,0.271313 -0.15678,0.355742 -0.42969,0.632812 -0.2729,0.277071 -0.7535,0.769937 -0.88672,1.525391 -0.14593,0.82759 0.31789,1.494229 0.48438,1.748047 0.16648,0.253818 0.1745,0.08566 0.082,0.375 -0.1728,0.540677 -0.39313,0.535813 -0.87891,1.160156 -0.24288,0.312172 -0.46812,0.76321 -0.5625,1.308594 -0.0944,0.545384 -0.0866,1.185859 0.0234,2.033203 -0.002,-0.01399 -0.024,0.253535 -0.25391,0.61719 -0.22993,0.36365 -0.62677,0.81504 -1.16015,1.25586 -1.06677,0.88163 -2.67436,1.72925 -4.59961,2.08789 -5.07092,0.94462 -12.57602,-0.34999 -17.32813,-1.11524 a 0.96712095,0.96712095 0 0 0 -1.10742,0.80078 0.96712095,0.96712095 0 0 0 0.80078,1.10938 c 4.71605,0.75943 12.29212,2.16888 17.99024,1.10742 2.26954,-0.42278 4.14986,-1.40354 5.47656,-2.5 0.66335,-0.54823 1.19066,-1.1248 1.5625,-1.71289 0.37184,-0.58808 0.62854,-1.196291 0.53711,-1.90039 -0.0946,-0.728616 -0.0811,-1.187454 -0.0352,-1.453125 0.046,-0.265671 0.0944,-0.336545 0.1836,-0.451172 0.17837,-0.229255 0.85465,-0.699974 1.19336,-1.759766 0.26888,-0.841309 -0.0741,-1.668897 -0.30664,-2.023437 -0.23255,-0.35454 -0.21614,-0.24452 -0.19727,-0.351563 0.0316,-0.179178 0.0814,-0.22167 0.35938,-0.503906 0.27799,-0.282236 0.75593,-0.782848 0.93554,-1.550781 0.0935,-0.399602 0.0731,-0.821405 -0.043,-1.148438 -0.11607,-0.327032 -0.27637,-0.526368 -0.35547,-0.642578 -0.15818,-0.232419 -0.18241,-0.08834 -0.0918,-0.572265 0.091,-0.485804 0.29459,-0.602386 0.5664,-1.275391 0.27182,-0.673004 0.35197,-1.602175 0.0508,-3.166016 -0.33761,-1.752936 -1.50269,-3.431437 -3.52149,-4.460937 -1.0094,-0.51475 -2.22152,-0.875816 -3.65234,-1.046875 z"
             id="path2934" />
        </g>
      </g>
    </g>
  </g>
</svg>
